<?xml version="1.0" encoding="UTF-8"?>
<svg width="557px" height="148px" viewBox="0 0 557 148" version="1.1" xmlns="http://www.w3.org/2000/svg" xmlns:xlink="http://www.w3.org/1999/xlink">
    <!-- Generator: Sketch 48.2 (47327) - http://www.bohemiancoding.com/sketch -->
    <title>logo-no BRANCO</title>
    <desc>Created with Sketch.</desc>
    <defs>
        <linearGradient x1="-0.00283004884%" y1="49.998784%" x2="99.9984827%" y2="49.998784%" id="linearGradient-1">
            <stop stop-color="#2B39BB" offset="20.43%"></stop>
            <stop stop-color="#262262" offset="100%"></stop>
        </linearGradient>
        <linearGradient x1="21.8063746%" y1="103.028282%" x2="79.3099694%" y2="12.0160954%" id="linearGradient-2">
            <stop stop-color="#272DFF" offset="0%"></stop>
            <stop stop-color="#03FAF1" offset="100%"></stop>
        </linearGradient>
    </defs>
    <g id="Page-1" stroke="none" stroke-width="1" fill="none" fill-rule="evenodd">
        <g id="logo-no-BRANCO">
            <path d="M490.479849,2.84824017 L490.496876,2.8445917 C490.881181,1.42533624 492.166659,0.377008734 493.708747,0.367279476 C493.711179,0.367279476 493.713611,0.366063319 493.716044,0.366063319 C487.084338,0.366063319 426.264317,0.366063319 426.264317,0.366063319 C422.26924,0.366063319 418.556312,1.51776419 415.38579,3.46604803 C415.09148,3.64360699 414.794738,3.813869 414.506509,4.00723799 C414.290033,4.15317686 414.080854,4.31492576 413.872891,4.47059389 C413.431426,4.79530786 413.000906,5.13339956 412.582548,5.49459825 C412.423231,5.63080786 412.271212,5.7718821 412.114328,5.91295633 C411.905148,6.10875764 411.682592,6.28996507 411.473413,6.49549563 C411.252072,6.71562009 411.064784,6.95277074 410.858037,7.18019214 C410.725476,7.32126638 410.594131,7.46112445 410.468867,7.60827948 C410.077264,8.06068996 409.708769,8.53134279 409.364596,9.01294105 C409.277033,9.13212445 409.172443,9.2415786 409.08488,9.36684279 L409.099474,9.3753559 C403.681493,17.2633515 404.462266,28.1248515 411.474629,35.1396463 L466.731948,90.3787227 L490.479849,2.84824017 Z" id="Shape" fill="url(#linearGradient-1)"></path>
            <path d="M553.779616,77.9374345 L496.396454,1.68681004 L496.386725,1.69167467 C495.768917,0.890227074 494.811801,0.366063319 493.728205,0.366063319 C492.180037,0.366063319 490.88483,1.41925546 490.495659,2.8445917 L490.478633,2.84824017 L456.105166,129.531688 L456.129489,129.538985 C456.079627,129.718976 456.027332,129.898967 455.992063,130.086255 C454.533891,137.086456 458.355057,143.948015 464.742314,146.566402 L464.73745,146.574915 C464.825013,146.608967 464.915009,146.632074 465.003788,146.666127 C465.422146,146.826659 465.849017,146.972598 466.289266,147.096646 C466.406017,147.128266 466.523985,147.156238 466.640736,147.186642 C466.866941,147.246234 467.084633,147.313122 467.313271,147.364201 C467.529747,147.407983 467.74379,147.428657 467.961483,147.467574 C468.091611,147.487033 468.222956,147.508924 468.355517,147.527166 C468.771443,147.584325 469.187369,147.62081 469.599646,147.640269 C469.771124,147.648782 469.938954,147.662159 470.110432,147.665808 C470.388932,147.671889 470.663784,147.654862 470.944716,147.641485 C473.600803,147.547841 476.272701,146.778013 478.66245,145.211603 L549.428205,98.8322314 C556.401651,94.2631288 558.346286,84.9096638 553.779616,77.9374345 Z" id="Shape" fill="url(#linearGradient-2)"></path>
            <g id="Group" transform="translate(277.283843, 77.834061)" fill="#231F20" fill-rule="nonzero">
                <path d="M7.85272707,51.4556114 C5.2489345,51.4556114 3.342,50.8523974 2.13557205,49.6471856 C0.931576419,48.4419738 0.328362445,46.486393 0.328362445,43.7853079 L0.328362445,8.25162664 C0.328362445,2.99417904 2.88350873,0.364847162 7.99744978,0.364847162 L15.1642642,0.364847162 C21.1951878,0.364847162 25.7557773,0.823338428 28.8411681,1.73788865 C37.3323777,4.19939083 41.5779825,12.0642795 41.5779825,25.3325546 C41.5779825,31.9897991 40.6257314,37.2715699 38.7200131,41.1802991 C36.8130786,45.0890284 33.4491878,47.9348362 28.6222598,49.7189389 C25.536869,50.8767205 20.7598035,51.4556114 14.2947118,51.4556114 L7.85272707,51.4556114 Z M12.9934236,42.7710328 L17.2621354,42.7710328 C20.3499585,42.7710328 22.8114607,42.3149738 24.6442096,41.3967751 C27.1531419,40.2389934 28.8764367,38.4050284 29.8177424,35.8960961 C30.7602642,33.3871638 31.230917,29.8894956 31.230917,25.4030917 C31.230917,21.0626266 30.7699934,17.7194105 29.8554432,15.3807402 C28.9384607,13.0420699 27.2966485,11.3394498 24.933655,10.2765284 C23.0498275,9.4094083 20.3232031,8.97524017 16.7549978,8.97524017 L12.6285764,8.97524017 C11.0840568,8.97524017 10.3130131,9.86789956 10.3130131,11.6532183 L10.3130131,39.949548 C10.3130131,41.8309432 11.2068886,42.7710328 12.9934236,42.7710328 Z" id="Shape"></path>
                <path d="M53.8429279,51.4556114 C51.2391354,51.4556114 49.2969323,50.8657751 48.0187511,49.6836703 C46.7381376,48.5015655 46.099655,46.5119323 46.099655,43.7135546 L46.099655,8.32337991 C46.099655,3.01728603 48.6815568,0.363631004 53.8429279,0.363631004 L75.5561987,0.363631004 C76.9073493,0.363631004 77.5823166,1.01427511 77.5823166,2.31799563 L77.5823166,7.38207424 C77.5823166,8.49120961 76.9073493,9.04699345 75.5561987,9.04699345 L58.4023013,9.04699345 C56.860214,9.04699345 56.0891703,9.93843668 56.0891703,11.7237555 L56.0891703,20.62481 L73.7477729,20.62481 C75.0989236,20.62481 75.7738908,21.2766703 75.7738908,22.5779585 L75.7738908,27.6456856 C75.7738908,28.8034672 75.0989236,29.3811419 73.7477729,29.3811419 L56.0891703,29.3811419 L56.0891703,39.9471157 C56.0891703,40.9601747 56.2934847,41.6850044 56.7045459,42.1191725 C57.1131747,42.5533406 57.8282751,42.7698166 58.8401179,42.7698166 L76.7857336,42.7698166 C78.1368843,42.7698166 78.8142838,43.4216769 78.8142838,44.7241812 L78.8142838,49.7165066 C78.8142838,50.8742882 78.1368843,51.453179 76.7857336,51.453179 L53.8429279,51.453179 L53.8429279,51.4556114 Z" id="Shape"></path>
                <path d="M117.770231,2.53325546 C118.25183,0.941305677 119.121382,0.144722707 120.376456,0.144722707 C123.706295,0.144722707 125.975644,0.290661572 127.182072,0.580106987 C127.904469,0.772259825 128.2681,1.25507424 128.2681,2.0261179 C128.2681,2.50771616 128.073515,3.28119214 127.687993,4.34168122 L113.068568,46.8232686 C112.535891,48.4152183 111.826871,49.6228624 110.935428,50.4413362 C110.042769,51.2622424 108.533517,51.6708712 106.410107,51.6708712 L103.661592,51.6708712 C101.535749,51.6708712 100.030146,51.2379192 99.1362707,50.369583 C98.2436114,49.5024629 97.4859454,48.1987424 96.855976,46.4620699 L82.5989651,4.48762009 C82.2620895,3.5694214 82.0930437,2.77405459 82.0930437,2.09908734 C82.0930437,1.3754738 82.4068122,0.867120087 83.0331332,0.580106987 C83.7081004,0.290661572 86.1452795,0.144722707 90.342238,0.144722707 C91.0670677,0.144722707 91.5960961,0.314984716 91.9366201,0.651860262 C92.2710633,0.988735808 92.5872642,1.61627293 92.8767096,2.53325546 C100.064199,24.6794782 104.140758,37.5366921 105.107603,41.1073297 C105.831216,38.6944738 110.050066,25.8372598 117.770231,2.53325546 Z" id="Shape"></path>
            </g>
            <g id="Group" transform="translate(0.000000, 76.617904)" fill="#231F20" fill-rule="nonzero">
                <path d="M13.7766288,41.0197664 C15.6105939,43.8667904 18.8662467,45.2909105 23.5472358,45.2909105 C26.635059,45.2909105 29.8189585,44.9041725 33.0989345,44.1319127 C34.1119934,43.8424672 34.9085764,43.7001769 35.4874672,43.7001769 C36.1624345,43.7001769 36.6209258,44.0346201 36.862941,44.7120197 C37.5865546,46.6894913 37.9477533,48.2838734 37.9477533,49.4890852 C37.9477533,50.3562052 37.3676463,51.0080655 36.2110808,51.4422336 C32.1101987,52.8870284 27.0205808,53.6118581 20.9422271,53.6118581 C14.2351201,53.6118581 9.19414847,51.6951943 5.81687991,47.8594345 C2.4383952,44.0236747 0.750368996,37.3785917 0.750368996,27.9217533 C0.750368996,18.1766856 2.40191048,11.1922948 5.70864192,6.9710131 C9.01294105,2.74729913 14.7434738,0.638482533 22.8953755,0.638482533 C28.298762,0.638482533 32.352214,1.00089738 35.0545153,1.72451092 C36.2597271,2.01274017 36.862941,2.63906114 36.862941,3.60712227 C36.862941,5.39244105 36.5005262,7.17654367 35.7769127,8.96064629 C35.5847598,9.58818341 35.1019454,9.90195197 34.3296856,9.90195197 C33.799441,9.90195197 32.9797511,9.7815524 31.8693996,9.53832096 C29.7946354,9.15279913 27.1640873,8.95943013 23.9814039,8.95943013 C19.0121856,8.95943013 15.61181,10.2984192 13.777845,12.9763974 C11.9450961,15.6531594 11.0268974,20.2733406 11.0268974,26.8357249 C11.0256812,33.4455393 11.9438799,38.1751747 13.7766288,41.0197664 Z" id="Shape"></path>
                <path d="M51.1892729,52.744738 L45.1814563,52.744738 C43.9762445,52.744738 43.3742467,52.0673384 43.3742467,50.7186201 L43.3742467,23.3623799 C43.3742467,22.1571681 43.5299148,21.228024 43.8436834,20.5773799 C44.1586681,19.9243035 44.7253974,19.3101441 45.5450873,18.7312533 C46.7989454,17.9103472 48.861548,17.1502489 51.7328952,16.4497424 C54.6030262,15.7516681 57.3174891,15.4014148 59.8750677,15.4014148 C62.2380611,15.4014148 63.8555502,15.5461376 64.7238865,15.835583 C65.5922227,16.1724585 66.0263908,16.7999956 66.0263908,17.7169782 C66.0263908,19.8403886 65.8816681,21.4822009 65.5922227,22.6375502 C65.3976376,23.4596725 64.7944236,23.8683013 63.7825808,23.8683013 C63.4457052,23.8683013 62.7439825,23.8451943 61.6822773,23.7953319 C60.6217882,23.7479017 59.8969585,23.7223624 59.5114367,23.7223624 C57.3393799,23.7223624 55.6282467,24.036131 54.3731725,24.6636681 C53.8417118,24.9543297 53.5048362,25.2656659 53.3601135,25.6037576 C53.1667445,25.9418493 53.0706681,26.5693865 53.0706681,27.486369 L53.0706681,50.7174039 C53.0718843,52.0673384 52.4443472,52.744738 51.1892729,52.744738 Z" id="Shape"></path>
                <path d="M78.3339017,52.744738 L72.3285175,52.744738 C71.1220895,52.744738 70.5188755,52.0673384 70.5188755,50.7186201 L70.5188755,18.3688384 C70.5188755,16.9702576 71.1451965,16.2673188 72.4002707,16.2673188 L78.4068712,16.2673188 C79.6132991,16.2673188 80.2165131,16.9459345 80.2165131,18.2946528 L80.2165131,50.7174039 C80.2152969,52.0673384 79.588976,52.744738 78.3339017,52.744738 Z" id="Shape"></path>
                <path d="M96.2649236,43.0811528 C97.3995983,44.7472882 99.4609847,45.5815721 102.451515,45.5815721 C104.623572,45.5815721 106.626583,45.41131 108.458116,45.0732183 C109.422528,44.8324192 110.171681,44.7120197 110.701926,44.7120197 C111.474186,44.7120197 111.980107,45.0975415 112.220906,45.8698013 C112.752367,47.5566114 113.017489,49.0050546 113.017489,50.2126987 C113.017489,51.1758952 112.607644,51.8046485 111.786738,52.0928777 C109.084437,53.1059367 105.586769,53.6118581 101.293734,53.6118581 C95.6981943,53.6118581 91.5365044,52.2242227 88.8098799,49.4513843 C86.0832555,46.6773297 84.7211594,41.8893188 84.7211594,35.0849192 C84.7211594,28.1868755 86.0832555,23.1690109 88.8098799,20.0337576 C91.5352882,16.8960721 96.1323624,15.3296616 102.596238,15.3296616 C105.92486,15.3296616 108.796207,15.6677533 111.209063,16.3415044 C112.0774,16.6321659 112.511568,17.1867336 112.511568,18.0064236 C112.511568,19.4062205 112.245229,21.0723559 111.716201,23.0011812 C111.475402,23.8208712 110.992587,24.2319323 110.268974,24.2319323 C110.028175,24.2319323 109.606168,24.1820699 109.002954,24.0872096 C108.39974,23.989917 108.049487,23.9424869 107.95341,23.9424869 C106.457537,23.6530415 104.769511,23.5083188 102.8869,23.5083188 C99.6069236,23.5083188 97.3995983,24.3632773 96.2649236,26.0768428 C95.1314651,27.7904083 94.5647358,30.5997314 94.5647358,34.5084607 C94.5647358,38.5582642 95.1314651,41.4174498 96.2649236,43.0811528 Z" id="Shape"></path>
                <path d="M126.389138,9.75844541 C125.580393,10.544083 124.345993,10.9369017 122.685939,10.9369017 C119.498391,10.9369017 117.904009,9.27441485 117.904009,5.95308952 C117.904009,2.58433406 119.498391,0.901172489 122.685939,0.901172489 C124.302212,0.901172489 125.525666,1.27331659 126.356301,2.01274017 C127.186937,2.75337991 127.602862,4.04493886 127.602862,5.88620087 C127.601646,7.68124891 127.19545,8.9715917 126.389138,9.75844541 Z" id="Shape"></path>
                <path d="M79.0027882,9.75844541 C78.1952598,10.544083 76.9608603,10.9369017 75.2995895,10.9369017 C72.1120415,10.9369017 70.5188755,9.27441485 70.5188755,5.95308952 C70.5188755,2.58433406 72.1120415,0.901172489 75.2995895,0.901172489 C76.9158624,0.901172489 78.1393166,1.27331659 78.9687358,2.01274017 C79.8005873,2.75337991 80.2152969,4.04493886 80.2152969,5.88620087 C80.2152969,7.68124891 79.8103166,8.9715917 79.0027882,9.75844541 Z" id="Shape"></path>
                <path d="M125.720251,52.744738 L119.713651,52.744738 C118.508439,52.744738 117.904009,52.0673384 117.904009,50.7186201 L117.904009,18.3688384 C117.904009,16.9702576 118.531546,16.2673188 119.785404,16.2673188 L125.792004,16.2673188 C126.997216,16.2673188 127.601646,16.9459345 127.601646,18.2946528 L127.601646,50.7174039 C127.601646,52.0673384 126.974109,52.744738 125.720251,52.744738 Z" id="Shape"></path>
                <path d="M177.128432,52.744738 L171.123048,52.744738 C169.91662,52.744738 169.313406,52.0673384 169.313406,50.7186201 L169.313406,22.7105197 C169.313406,20.6357555 170.133096,19.2371747 171.773692,18.5147773 C176.840203,16.4387969 182.750727,15.4014148 189.504048,15.4014148 C194.137607,15.4014148 197.128138,16.4874432 198.478072,18.6582838 C201.22902,16.4874432 205.883253,15.4014148 212.445638,15.4014148 C215.580891,15.4014148 217.919561,15.7759913 219.464081,16.5227118 C221.007384,17.2706485 222.06909,18.4174847 222.649197,19.9607882 C223.083365,21.2158624 223.299841,23.5800721 223.299841,27.053417 L223.299841,50.7186201 C223.299841,52.0673384 222.72095,52.744738 221.563168,52.744738 L215.483598,52.744738 C214.278386,52.744738 213.673956,52.0673384 213.673956,50.7186201 L213.673956,29.2242576 C213.673956,27.5824454 213.553557,26.4015568 213.312758,25.6779432 C212.87859,24.2769301 211.358393,23.5788559 208.752168,23.5788559 C206.918203,23.5788559 205.061131,23.8926245 203.179736,24.5189454 C202.600845,24.7110983 202.069384,25.0504061 201.587786,25.5320044 C201.299557,25.8214498 201.153618,26.279941 201.153618,26.9074782 C201.153618,27.0522009 201.165779,27.4255611 201.190103,28.0287751 C201.214426,28.6307729 201.226587,29.0053493 201.226587,29.1512882 L201.226587,50.7174039 C201.226587,52.0661223 200.622157,52.7435218 199.416945,52.7435218 L193.338592,52.7435218 C192.13338,52.7435218 191.530166,52.0661223 191.530166,50.7174039 L191.530166,29.0783188 C191.530166,27.5337991 191.40855,26.4003406 191.167751,25.6767271 C190.878306,24.9044672 190.407653,24.360845 189.757009,24.0482926 C189.105148,23.734524 188.079928,23.5776397 186.681347,23.5776397 C184.654013,23.5776397 182.772618,23.865869 181.034729,24.4447598 C180.118963,24.8314978 179.564395,25.1939127 179.371026,25.5320044 C179.130227,25.8214498 179.008611,26.6180328 179.008611,27.9205371 L179.008611,50.7174039 C179.009828,52.0673384 178.38229,52.744738 177.128432,52.744738 Z" id="Shape"></path>
                <path d="M258.652314,49.9220371 C257.974915,50.6955131 257.129686,51.2488646 256.119059,51.5857402 C254.624402,52.1159847 252.440183,52.5866376 249.568836,52.9964825 C246.697489,53.4075437 244.031672,53.6118581 241.572603,53.6118581 C236.313939,53.6118581 232.706817,52.5635306 230.753668,50.4644432 C228.80052,48.3665721 227.822729,45.4830633 227.822729,41.8175655 C227.822729,37.666821 229.17388,34.7006135 231.876181,32.9152948 C234.143098,31.3707751 238.003181,30.5997314 243.455214,30.5997314 C246.059007,30.5997314 248.20674,30.6958079 249.894766,30.8891769 L249.894766,29.0807511 C249.894766,27.5362314 249.775583,26.4258799 249.533568,25.7521288 C248.955893,24.353548 246.904236,23.6530415 243.382245,23.6530415 C241.115328,23.6530415 238.701255,23.8695175 236.144893,24.3049017 C234.264714,24.593131 233.227332,24.7378537 233.032747,24.7378537 C232.213057,24.7378537 231.681596,24.2769301 231.440797,23.3623799 C230.957983,21.4323384 230.717183,20.0337576 230.717183,19.1642052 C230.717183,18.056286 231.247428,17.3314563 232.310349,16.9945808 C235.832341,15.8842293 239.981869,15.3296616 244.756502,15.3296616 C250.837288,15.3296616 254.889524,16.3196135 256.916858,18.295869 C258.653531,19.9863275 259.521867,23.1933341 259.521867,27.9217533 L259.521867,46.447476 C259.520651,48.0406419 259.231205,49.1984236 258.652314,49.9220371 Z M244.683533,37.1852227 C241.499633,37.1852227 239.424869,37.5464214 238.461672,38.2712511 C237.54469,38.8501419 237.086199,39.9604934 237.086199,41.5986572 C237.086199,43.1431769 237.496044,44.3131201 238.315734,45.1097031 C239.13664,45.9050699 240.60819,46.3039694 242.7316,46.3039694 C245.336609,46.3039694 247.290974,46.014524 248.592262,45.4356332 C249.172369,45.1948341 249.532352,44.8080961 249.67829,44.2778515 C249.821797,43.8424672 249.89355,43.0215611 249.89355,41.8175655 L249.89355,37.4758843 C247.965941,37.2825153 246.229269,37.1852227 244.683533,37.1852227 Z" id="Shape"></path>
                <path d="M132.150074,18.295869 C132.150074,16.9471507 132.753288,16.2685349 133.959716,16.2685349 L140.03807,16.2685349 C141.245714,16.2685349 141.847712,16.9471507 141.847712,18.295869 L141.847712,39.1408035 C141.847712,41.2131354 142.016758,42.6129323 142.354849,43.3365459 C142.88631,44.7363428 144.598659,45.4368493 147.49433,45.4368493 C150.050692,45.4368493 151.95641,45.2434803 153.211485,44.85431 C153.839022,44.6633734 154.296297,44.4237904 154.586959,44.1319127 C154.923834,43.7950371 155.094096,43.1431769 155.094096,42.177548 L155.094096,18.295869 C155.094096,16.9471507 155.720417,16.2685349 156.975491,16.2685349 L162.980876,16.2685349 C164.187303,16.2685349 164.790517,16.9471507 164.790517,18.295869 L164.790517,46.7369214 C164.790517,49.0524847 163.922181,50.5982205 162.184293,51.3692642 C158.662301,52.8651376 153.258915,53.6130742 145.972917,53.6130742 C138.689352,53.6130742 134.393884,51.9724782 133.09138,48.6925022 C132.463843,47.1005524 132.150074,44.3520371 132.150074,40.4420917 L132.150074,18.295869 Z" id="Shape"></path>
                <path d="M148.356585,11.673893 C147.349607,11.673893 146.428976,11.611869 145.589828,11.4853886 C144.751895,11.3613406 144.332321,10.962441 144.332321,10.2923384 C144.332321,9.7900655 144.5415,9.28536026 144.961074,8.78308734 L150.432566,1.61262445 C151.145234,0.646995633 152.088972,0.166613537 153.262563,0.166613537 C154.856945,0.166613537 156.260391,0.229853712 157.476548,0.353901747 C158.524876,0.480382096 159.049039,0.880497817 159.049039,1.54938428 C159.049039,1.97017467 158.734055,2.53568777 158.105301,3.24713974 L151.123343,10.544083 C150.495806,11.2968843 149.572742,11.673893 148.356585,11.673893 Z" id="Shape"></path>
            </g>
            <path d="M490.479849,2.84824017 L490.496876,2.8445917 C490.881181,1.42533624 492.166659,0.377008734 493.708747,0.367279476 C493.711179,0.367279476 493.713611,0.366063319 493.716044,0.366063319 C492.502319,0.366063319 493.94833,0.366063319 489.808531,0.366063319 C487.720389,0.366063319 486.720707,0.81360917 485.806157,1.34871834 C484.756614,1.96287773 483.839631,4.40370524 483.501539,5.2489345 C483.501539,5.2489345 466.078871,49.3163908 454.615373,78.2657969 L466.729515,90.3775066 L490.479849,2.84824017 Z" id="Shape" fill="#060E33" opacity="0.2"></path>
        </g>
    </g>
</svg>