<?xml version="1.0" encoding="utf-8"?>
<!-- Generated by IcoMoon.io -->
<!DOCTYPE svg PUBLIC "-//W3C//DTD SVG 1.1//EN" "http://www.w3.org/Graphics/SVG/1.1/DTD/svg11.dtd">
<svg version="1.1" xmlns="http://www.w3.org/2000/svg" xmlns:xlink="http://www.w3.org/1999/xlink" width="512" height="512" viewBox="0 0 512 512">
<g>
</g>
	<path fill="#fff" d="M29.675 177.275l92.784-1.157v303.831l-92.784 1.178v-303.851z" />
	<path d="M200.141 177.275l88.658-1.126v38.646l0.021 10.947c26.255-25.744 53.32-45.2 96.563-45.2 51.016 0 100.362 21.381 100.362 91.034v208.435l-90 1.341v-159.232c0-35.103-8.796-57.733-50.719-57.733-36.935 0-52.398 6.615-52.398 55.214v160.399l-92.478 1.116v-303.841z" fill="#fff" />
	<path d="M127.836 81.449c0 28.051-22.74 50.79-50.79 50.79s-50.791-22.739-50.791-50.791c0-28.051 22.739-50.791 50.791-50.791 28.051 0 50.791 22.739 50.791 50.791z" fill="#fff" />
</svg>