<?xml version="1.0" encoding="UTF-8"?>
<svg width="250px" height="204px" viewBox="0 0 250 204" version="1.1" xmlns="http://www.w3.org/2000/svg" xmlns:xlink="http://www.w3.org/1999/xlink">
    <!-- Generator: Sketch 42 (36781) - http://www.bohemiancoding.com/sketch -->
    <title>twitter</title>
    <desc>Created with Sketch.</desc>
    <defs></defs>
    <g id="Page-1" stroke="none" stroke-width="1" fill="none" fill-rule="evenodd">
        <g id="twitter" transform="translate(-2.000000, -25.000000)">
            <rect id="Rectangle-path" x="0" y="0" width="255" height="255"></rect>
            <path d="M80.62,228.59 C174.96,228.59 226.56,150.43 226.56,82.65 C226.56,80.43 226.56,78.22 226.41,76.02 C236.448314,68.7591086 245.113555,59.768794 252,49.47 C242.638791,53.6180177 232.708293,56.3382865 222.54,57.54 C233.24744,51.1298206 241.261235,41.0477199 245.09,29.17 C235.021575,35.1445532 224.006461,39.3551202 212.52,41.62 C196.620828,24.7139428 171.357194,20.5761258 150.895493,31.5267993 C130.433792,42.4774727 119.86275,65.7932573 125.11,88.4 C83.8689574,86.3324954 45.4447578,66.8532327 19.4,34.81 C5.78622756,58.2464473 12.7398788,88.2285948 35.28,103.28 C27.117412,103.038075 19.1327937,100.836132 12,96.86 L12,97.51 C12.0066813,121.92593 29.2175149,142.955352 53.15,147.79 C45.598696,149.8494 37.6758059,150.150443 29.99,148.67 C36.7094793,169.564228 55.9657456,183.877839 77.91,184.29 C59.7473504,198.564319 37.3105951,206.313277 14.21,206.29 C10.1290357,206.282165 6.05204065,206.035075 2,205.55 C25.4563595,220.602766 52.749134,228.587169 80.62,228.55" id="Shape" fill="#fff" fill-rule="nonzero"></path>
        </g>
    </g>
</svg>